<svg width="560" height="669" viewBox="0 0 560 669" fill="none" xmlns="http://www.w3.org/2000/svg">
<path d="M33.2641 342.288C41.1041 342.288 45.6961 347.328 45.6961 359.424C45.6961 359.536 45.6961 359.648 45.6961 359.872L45.5841 374.544H35.1681C33.3761 374.544 31.2481 374.544 28.6721 374.544H17.2481C14.6721 374.544 12.5441 374.544 10.7521 374.544H0.336121L0.224121 361.552C0.224121 361.328 0.224121 361.104 0.224121 360.992C0.224121 349.904 2.80012 343.744 10.9761 343.744C17.5841 343.744 20.9441 349.344 21.8401 357.184C22.4001 348.784 26.0961 342.288 33.2641 342.288ZM1.00812 362.112V369.504H6.83212C9.18412 369.504 12.5441 369.504 17.2481 369.504H21.6161V362C21.6161 353.824 18.7041 349.568 10.8641 349.568C2.91212 349.456 1.00812 353.712 1.00812 362.112ZM33.2641 347.888C25.9841 347.888 22.2881 351.584 22.2881 360.992V369.28H45.1361V360.32C45.1361 351.696 41.2161 347.888 33.2641 347.888Z" fill="#B6C9B3"/>
<path d="M12.7681 317.2H17.4721C17.1361 319.104 16.5761 321.568 16.5761 324.144C16.5761 328.624 21.0561 331.312 31.2481 331.312H34.8321C41.6641 331.312 45.8081 331.2 45.8081 331.2V336.128C45.8081 336.128 38.3041 336.24 35.5041 336.24C35.3921 336.24 35.2801 336.24 35.2801 336.24H34.8321C34.8321 336.24 34.4961 336.24 33.9361 336.128H12.7681V331.312H21.2801C16.2401 327.616 12.7681 322.352 12.7681 317.872C12.7681 317.648 12.7681 317.424 12.7681 317.2Z" fill="#B6C9B3"/>
<path d="M12.7681 285.168H45.8081V290.208H39.3121C43.6801 293.568 46.3681 297.264 46.3681 302.304C46.3681 308.24 43.3441 313.056 33.0401 313.056H12.7681V308.128H33.7121C41.8881 308.016 44.4641 304.208 44.4641 300.176C44.4641 296.032 42.6721 293.344 38.5281 290.32H12.7681V285.168Z" fill="#B6C9B3"/>
<path d="M25.7601 249.664L46.0321 250L45.9201 254.928L24.9761 254.592C16.8001 254.48 14.2241 258.4 14.1121 262.32C14.0001 266.464 15.7921 269.152 19.9361 272.288L45.5841 272.736L45.4721 277.776L12.4321 277.216L12.5441 272.176L19.0401 272.288C14.6721 268.928 12.0961 265.12 12.2081 260.08C12.3201 254.256 15.4561 249.552 25.7601 249.664Z" fill="#B6C9B3"/>
<path d="M48.048 215.84C49.28 217.744 50.512 220.208 50.288 221.776C49.952 224.24 48.048 225.248 45.136 224.8C43.568 224.576 41.552 224.128 40.208 223.792C42.896 225.584 48.72 232.528 47.936 237.904C47.152 243.168 43.344 245.856 39.424 245.296C35.168 244.624 31.584 239.92 28.672 227.712C28.672 227.488 28.56 227.264 28.56 227.152L28.336 226.256C28.336 226.144 28.336 226.032 28.224 225.92C27.664 223.568 25.648 221.664 23.072 221.216C22.96 221.216 22.96 221.216 22.848 221.216H22.736C22.624 221.216 22.512 221.216 22.4 221.216C22.4 221.216 22.4 221.216 22.288 221.216C22.176 221.216 22.064 221.216 21.84 221.216H21.728C21.616 221.216 21.504 221.216 21.28 221.216C21.168 221.216 21.056 221.216 20.944 221.216C20.048 221.328 19.264 221.664 18.48 222.112C18.368 222.112 18.368 222.224 18.256 222.224C18.032 222.336 17.92 222.448 17.92 222.448C17.248 222.896 16.8 223.456 16.464 224.128C16.016 224.912 15.792 225.808 15.568 226.928C15.456 227.376 15.456 227.824 15.456 228.272C15.456 228.496 15.456 228.832 15.456 229.056C15.568 229.952 15.792 230.736 16.24 231.52C17.584 233.984 20.16 235.216 21.504 236.448L17.696 239.248C16.688 237.12 15.344 233.2 15.12 229.504C15.12 229.28 14.784 225.92 16.016 222.56C17.36 218.752 20.048 216.064 22.736 216.288C22.736 216.288 22.736 216.288 22.848 216.288C26.656 216.4 27.776 221.664 27.776 221.664L29.232 227.376C31.808 237.568 33.488 240.144 38.304 240.816C41.776 241.376 45.024 238.688 45.696 234.656C46.368 230.176 41.104 224.688 38.976 223.792C38.976 223.792 37.184 222.784 37.408 220.544C37.632 218.304 39.984 218.752 39.984 218.752C41.216 218.976 42.336 219.2 43.008 219.312C46.704 219.872 48.608 219.648 48.832 218.304C48.944 217.744 48.496 217.072 47.936 216.288L48.048 215.84Z" fill="#B6C9B3"/>
<path d="M31.3599 135.984L73.1359 153.904C72.5759 155.024 72.1279 155.92 72.0159 156.256C71.9039 156.592 71.4559 157.6 71.0079 158.72L32.3679 142.144V142.256L33.0399 143.264C33.1519 143.488 33.3759 143.824 33.7119 144.384C33.9359 144.832 34.3839 145.28 34.8319 145.952L50.9599 169.808C51.1839 170.144 51.2959 170.256 51.1839 170.48L50.9599 171.04C50.8479 171.264 50.7359 171.264 50.2879 171.376L18.9279 177.536L30.2399 182.464L31.0239 182.8L40.6559 186.944C41.5519 187.392 42.4479 187.728 43.2319 188.064L56.2239 193.664L55.8879 194.448L17.2479 177.872C17.2479 177.872 14.1119 178.32 13.3279 180.336L12.5439 180L15.4559 173.056C16.4639 172.944 18.5919 172.608 20.1599 172.272L47.8239 166.784L35.6159 148.64L30.7999 141.808C30.6879 141.584 30.5759 141.36 30.3519 141.248L29.5679 140.128L31.3599 135.984Z" fill="#B6C9B3"/>
<path d="M90.384 124.224C90.72 126.464 90.72 129.152 89.824 130.496C88.48 132.624 86.352 132.736 83.888 131.056C82.544 130.16 80.976 128.928 79.856 128.032C81.536 130.832 83.888 139.568 80.864 144.16C77.952 148.64 73.36 149.424 70 147.184C66.416 144.832 65.072 139.008 67.648 126.688C67.648 126.464 67.76 126.24 67.76 126.128L67.984 125.232C67.984 125.12 67.984 125.008 68.096 124.896C68.544 122.432 67.536 119.968 65.52 118.4C65.52 118.4 65.408 118.288 65.296 118.288L65.184 118.176C65.072 118.064 64.96 118.064 64.848 117.952C64.736 117.84 64.624 117.84 64.512 117.728H64.4C64.288 117.728 64.176 117.616 64.064 117.616C63.952 117.616 63.84 117.504 63.728 117.504C62.832 117.28 61.936 117.168 61.152 117.28C61.04 117.28 61.04 117.28 60.928 117.28C60.704 117.28 60.592 117.28 60.48 117.392C59.696 117.504 59.024 117.84 58.464 118.288C57.792 118.848 57.12 119.52 56.56 120.416C56.336 120.752 56.112 121.2 55.888 121.536C55.776 121.76 55.664 121.984 55.664 122.208C55.328 123.104 55.216 123.888 55.328 124.784C55.552 127.584 57.344 129.824 58.016 131.392L53.312 132.288C53.312 129.936 53.76 125.904 55.104 122.32C55.216 122.096 56.224 118.848 58.8 116.384C61.6 113.472 65.184 112.24 67.536 113.584C67.536 113.584 67.536 113.584 67.648 113.584C71.008 115.264 69.776 120.528 69.776 120.528L68.768 126.24C66.864 136.544 67.2 139.568 71.232 142.256C74.144 144.16 78.288 143.152 80.528 139.792C82.992 135.984 80.528 128.816 79.072 127.136C79.072 127.136 77.84 125.456 78.96 123.552C80.08 121.648 81.984 122.992 81.984 122.992C82.992 123.776 83.888 124.336 84.448 124.784C87.584 126.8 89.376 127.472 90.16 126.352C90.496 125.904 90.384 125.12 90.16 124.224H90.384Z" fill="#B6C9B3"/>
<path d="M103.152 98.912C107.52 102.72 107.408 109.44 103.04 114.48C98.5599 119.632 95.1999 120.976 92.9599 122.544L92.8479 122.656L87.8079 118.288C87.8079 118.288 101.472 119.072 105.392 109.44C105.952 106.976 105.056 104.96 103.264 103.392C99.7919 100.368 95.1999 103.168 90.3839 106.08C85.3439 109.104 80.0799 111.904 76.1599 108.432C71.0079 103.952 73.1359 97.008 76.7199 92.864C80.1919 88.832 81.7599 87.824 84.6719 85.36L84.7839 85.248L85.0079 85.024L85.1199 85.136L89.8239 89.168C80.9759 89.504 76.1599 94.432 75.8239 94.992C73.5839 98.464 73.3599 101.824 75.5999 103.728C78.9599 106.64 83.6639 103.84 88.4799 101.152C93.4079 98.128 98.6719 95.104 103.152 98.912Z" fill="#B6C9B3"/>
<path d="M124.768 78.976C128.688 83.344 127.792 89.952 122.864 94.32C117.824 98.912 114.352 99.808 111.888 101.04C111.776 101.04 111.776 101.152 111.776 101.152L107.296 96.112C107.296 96.112 120.736 98.576 125.776 89.504C126.672 87.152 126 85.024 124.432 83.232C121.408 79.872 116.48 82 111.328 84.24C105.952 86.592 100.464 88.72 96.88 84.912C92.288 79.872 95.312 73.152 99.344 69.456C103.264 65.872 104.944 65.088 108.08 62.96L108.192 62.848L108.416 62.736L108.64 62.96L112.784 67.552C103.936 66.88 98.56 71.136 98.224 71.584C95.536 74.72 94.976 78.08 96.992 80.208C100.016 83.568 104.944 81.328 110.096 79.2C115.248 76.96 120.848 74.608 124.768 78.976Z" fill="#B6C9B3"/>
<path d="M108.304 50.08C107.184 48.624 107.408 46.384 108.976 45.264C110.544 44.144 112.672 44.368 113.904 45.936C115.024 47.504 114.688 49.632 113.232 50.752C111.776 51.872 109.424 51.648 108.304 50.08ZM134.96 83.568L114.912 57.248L118.832 54.224L138.88 80.544L134.96 83.568Z" fill="#B6C9B3"/>
<path d="M156.8 63.296C156.352 66.432 155.12 69.344 152.656 70.912C148.96 73.264 145.824 72.032 142.464 66.768L129.584 47.056L123.536 51.088L123.312 50.752C124.656 49.856 125.888 48.736 126.784 47.616C130.816 42.576 128.912 37.312 128.912 37.312L129.136 37.2L133.616 44.032L140.56 39.44L140.784 39.776L133.84 44.368L146.608 63.968C149.184 67.888 151.872 69.232 154.112 67.664C155.456 66.768 156.24 65.312 156.464 63.184L156.8 63.296Z" fill="#B6C9B3"/>
<path d="M186.256 49.968C185.472 52.096 184.128 54.448 182.672 55.12C180.432 56.24 178.528 55.232 177.184 52.656C176.512 51.2 175.728 49.408 175.168 48.064C175.168 51.312 172.816 60.048 168 62.512C163.296 64.864 158.816 63.296 157.024 59.712C155.12 55.792 156.912 50.192 165.312 40.784C165.424 40.672 165.536 40.448 165.76 40.336L166.432 39.664C166.544 39.552 166.544 39.552 166.656 39.44C168.224 37.536 168.672 34.848 167.664 32.496C167.664 32.384 167.552 32.384 167.552 32.272L167.44 32.16C167.44 32.048 167.328 31.936 167.216 31.824C167.216 31.824 167.216 31.824 167.216 31.712C167.104 31.6 167.104 31.488 166.992 31.376C166.992 31.376 166.992 31.376 166.88 31.264C166.768 31.152 166.768 31.04 166.656 30.928C166.544 30.816 166.544 30.704 166.432 30.704C165.872 30.032 165.088 29.584 164.304 29.248C164.192 29.248 164.192 29.248 164.08 29.136C163.856 29.024 163.744 29.024 163.632 29.024C162.96 28.8 162.176 28.688 161.392 28.8C160.496 28.912 159.6 29.136 158.592 29.696C158.144 29.92 157.808 30.144 157.472 30.368C157.248 30.48 157.024 30.704 156.912 30.816C156.24 31.376 155.68 32.048 155.344 32.832C154.112 35.408 154.56 38.208 154.336 39.888L149.856 38.32C151.088 36.304 153.44 32.944 156.352 30.592C156.576 30.48 159.04 28.24 162.512 27.232C166.432 26.112 170.128 26.896 171.584 29.136C173.712 32.272 169.904 36.192 169.904 36.192L166.096 40.672C159.264 48.624 158.144 51.424 160.272 55.792C161.84 58.928 165.984 60.048 169.568 58.256C173.6 56.24 175.056 48.736 174.608 46.608C174.608 46.608 174.384 44.592 176.288 43.472C178.192 42.352 179.2 44.592 179.2 44.592C179.76 45.712 180.208 46.72 180.432 47.392C182.112 50.752 183.344 52.208 184.576 51.536C185.024 51.312 185.472 50.528 185.696 49.632L186.256 49.968Z" fill="#B6C9B3"/>
<path d="M194.88 53.776C194.656 55.232 194.432 56.912 192.416 59.264L191.968 59.04C195.216 54.336 192.976 51.088 191.856 51.312C191.184 51.424 190.4 51.536 189.616 51.2C188.048 50.528 187.376 48.736 187.936 47.28C188.608 45.712 190.4 44.928 191.968 45.712C194.432 46.72 195.44 50.64 194.88 53.776Z" fill="#B6C9B3"/>
<path d="M243.04 34.2881C241.696 36.0801 239.792 38.096 238.224 38.432C235.76 38.9921 234.192 37.5361 233.632 34.6241C233.296 33.0561 232.96 31.0401 232.848 29.6961C232.064 32.8321 227.584 40.784 222.208 41.9041C217.056 43.0241 213.136 40.4481 212.352 36.5281C211.456 32.2721 214.592 27.232 225.12 20.2881C225.344 20.1761 225.456 20.0641 225.68 19.9521L226.464 19.3921C226.576 19.2801 226.688 19.2801 226.688 19.1681C228.704 17.7121 229.824 15.2481 229.376 12.6721C229.376 12.5601 229.376 12.5601 229.376 12.4481V12.3361C229.376 12.2241 229.264 12.1121 229.264 12.0001C229.264 12.0001 229.264 12.0001 229.264 11.8881C229.264 11.7761 229.152 11.6641 229.152 11.5521V11.4401C229.152 11.3281 229.04 11.2161 228.928 11.1041C228.928 10.9921 228.816 10.8801 228.704 10.7681C228.256 9.98405 227.696 9.31205 227.024 8.75205L226.912 8.64005C226.688 8.52805 226.576 8.41605 226.576 8.41605C225.904 7.96805 225.232 7.74405 224.56 7.63205C223.664 7.52005 222.768 7.52005 221.648 7.74405C221.2 7.85605 220.752 7.96805 220.416 8.08005C220.192 8.19205 219.968 8.30405 219.744 8.41605C218.96 8.86405 218.288 9.31205 217.728 9.98405C215.936 12.1121 215.6 15.0241 214.928 16.5921L211.008 13.9041C212.688 12.2241 215.824 9.64805 219.184 8.08005C219.408 7.96805 222.432 6.51205 226.016 6.40005C230.048 6.28805 233.408 7.96805 234.304 10.5441C234.304 10.5441 234.304 10.5441 234.304 10.6561C235.536 14.2401 230.944 17.1521 230.944 17.1521L226.128 20.5121C217.504 26.4481 215.712 28.9121 216.72 33.6161C217.504 37.0881 221.088 39.216 225.008 38.3201C229.488 37.4241 232.736 30.4801 232.848 28.2401C232.848 28.2401 233.072 26.2241 235.312 25.5521C237.44 24.9921 237.776 27.3441 237.776 27.3441C238 28.5761 238.112 29.6961 238.336 30.3681C239.12 34.0641 239.904 35.7441 241.248 35.4081C241.808 35.2961 242.368 34.6241 242.816 33.8401L243.04 34.2881Z" fill="#B6C9B3"/>
<path d="M293.216 32.496C291.536 33.952 289.296 35.52 287.728 35.52C285.264 35.52 284.032 33.84 284.032 30.816C284.032 29.248 284.144 27.232 284.368 25.776C283.024 28.688 276.864 35.408 271.488 35.408C266.224 35.408 262.976 32.048 262.976 28.016C262.976 23.648 267.12 19.504 278.88 14.912C279.104 14.8 279.216 14.8 279.44 14.688L280.336 14.352C280.448 14.352 280.56 14.24 280.672 14.24C282.912 13.344 284.592 11.104 284.592 8.528C284.592 8.416 284.592 8.416 284.592 8.304V8.08C284.592 7.968 284.592 7.856 284.592 7.744C284.592 7.744 284.592 7.744 284.592 7.632C284.592 7.52 284.592 7.408 284.592 7.184V7.072C284.592 6.96 284.592 6.848 284.48 6.624C284.48 6.512 284.368 6.4 284.368 6.288C284.144 5.392 283.696 4.608 283.136 3.936L283.024 3.824C282.912 3.712 282.8 3.6 282.688 3.488C282.128 2.928 281.568 2.48 280.896 2.256C280.112 1.92 279.104 1.808 277.984 1.808C277.536 1.808 277.088 1.808 276.64 1.92C276.416 1.92 276.08 2.032 275.856 2.032C274.96 2.256 274.176 2.592 273.504 3.152C271.264 4.832 270.368 7.632 269.36 9.088L266.112 5.616C268.128 4.384 271.712 2.48 275.408 1.696C275.632 1.584 278.88 0.8 282.464 1.584C286.496 2.368 289.408 4.72 289.632 7.408C289.632 7.408 289.632 7.408 289.632 7.52C290.08 11.328 284.928 13.12 284.928 13.12L279.552 15.36C269.92 19.392 267.568 21.296 267.568 26.224C267.568 29.808 270.704 32.608 274.736 32.608C279.216 32.608 283.92 26.56 284.48 24.432C284.48 24.432 285.152 22.528 287.392 22.416C289.632 22.304 289.52 24.656 289.52 24.656C289.408 25.888 289.408 27.008 289.408 27.68C289.408 31.376 289.856 33.28 291.2 33.28C291.76 33.28 292.432 32.832 292.992 32.16L293.216 32.496Z" fill="#B6C9B3"/>
<path d="M319.536 5.16804L318.976 9.87204C317.072 9.31204 314.832 8.41604 312.144 8.08004C307.664 7.52004 304.528 11.664 303.296 21.856L302.848 25.328C302.064 32.16 301.616 36.192 301.616 36.192L296.688 35.632C296.688 35.632 297.584 28.24 297.92 25.44C297.92 25.328 297.92 25.216 297.92 25.216V24.768C297.92 24.768 298.032 24.432 298.144 23.872L300.72 2.81604L305.536 3.37604L304.528 11.776C308.784 7.18404 314.384 4.38404 318.976 4.94404C319.2 5.16804 319.312 5.16804 319.536 5.16804Z" fill="#B6C9B3"/>
<path d="M337.12 38.5441C334.656 40.4481 331.632 41.5681 328.832 41.0081C324.576 40.1121 323.232 36.976 324.576 30.816L329.616 7.74405L322.56 6.17605L322.672 5.84005C324.24 6.17605 325.808 6.28805 327.264 6.17605C333.648 5.50405 336.112 0.46405 336.112 0.46405H336.336L334.544 8.52805L342.72 10.3201L342.608 10.6561L334.432 8.86405L329.504 31.6C328.496 36.1921 329.392 38.992 332.08 39.552C333.648 39.888 335.216 39.44 336.896 38.0961L337.12 38.5441Z" fill="#B6C9B3"/>
<path d="M340.032 43.808L349.44 12.112L354.256 13.568L344.848 45.264L340.032 43.808ZM351.232 2.59203C351.792 0.800027 353.696 -0.319973 355.488 0.240027C357.28 0.800027 358.4 2.70403 357.84 4.60803C357.28 6.40003 355.376 7.40803 353.472 6.84803C351.792 6.40003 350.672 4.49603 351.232 2.59203Z" fill="#B6C9B3"/>
<path d="M376.208 46.608C374.08 52.096 367.696 54.112 361.536 51.76C355.264 49.296 352.8 46.496 350.56 44.928L350.448 44.816L352.912 38.544C352.912 38.544 356.72 51.648 367.136 52.208C369.712 51.984 371.28 50.416 372.064 48.288C373.744 44.032 369.6 40.56 365.232 36.976C360.752 33.28 356.384 29.248 358.288 24.32C360.752 18.048 368.144 17.712 373.184 19.616C378.112 21.52 379.568 22.64 382.816 24.544L382.928 24.656L383.152 24.768V24.88L380.912 30.592C377.664 22.416 371.392 19.392 370.832 19.28C366.8 18.272 363.552 19.28 362.544 21.968C360.864 26.112 365.008 29.584 369.264 33.28C373.744 37.2 378.336 41.232 376.208 46.608Z" fill="#B6C9B3"/>
<path d="M394.576 62.4C391.664 63.52 388.528 63.856 385.952 62.512C382.032 60.496 381.696 57.136 384.608 51.536L395.584 30.704L389.088 27.344L389.312 27.008C390.768 27.792 392.224 28.24 393.68 28.576C399.952 29.696 403.76 25.328 403.76 25.328L403.984 25.44L400.176 32.72L407.568 36.64L407.344 36.976L399.952 33.056L389.088 53.776C386.848 57.92 387.072 60.832 389.536 62.176C390.88 62.848 392.672 62.848 394.576 62.064V62.4Z" fill="#B6C9B3"/>
<path d="M420.56 81.552C418.32 81.888 415.632 81.888 414.288 80.992C412.272 79.536 412.16 77.52 413.84 75.056C414.736 73.712 415.968 72.144 416.864 71.136C414.064 72.704 405.216 74.944 400.736 71.92C396.368 68.896 395.584 64.304 397.824 61.056C400.288 57.472 406.112 56.24 418.32 59.04C418.544 59.04 418.768 59.152 418.88 59.152L419.776 59.376C419.888 59.376 420 59.376 420.112 59.488C422.464 59.936 425.04 59.04 426.608 56.912C426.608 56.912 426.72 56.8 426.72 56.688L426.832 56.576C426.944 56.464 426.944 56.352 427.056 56.24C427.168 56.128 427.168 56.016 427.28 55.904V55.792C427.28 55.68 427.392 55.568 427.392 55.456C427.392 55.344 427.504 55.232 427.504 55.12C427.728 54.224 427.84 53.44 427.728 52.544C427.728 52.432 427.728 52.432 427.728 52.32C427.728 52.096 427.728 51.984 427.616 51.872C427.504 51.088 427.168 50.416 426.832 49.856C426.384 49.184 425.6 48.512 424.704 47.84C424.368 47.616 423.92 47.392 423.584 47.168C423.36 47.056 423.136 46.944 422.912 46.832C422.016 46.496 421.232 46.384 420.336 46.496C417.536 46.608 415.296 48.4 413.616 49.072L412.832 44.368C415.184 44.368 419.216 44.928 422.688 46.272C422.912 46.384 426.048 47.504 428.624 50.08C431.536 52.992 432.656 56.576 431.312 58.928C431.312 58.928 431.312 58.928 431.312 59.04C429.52 62.4 424.368 61.056 424.368 61.056L418.656 59.936C408.352 57.808 405.328 58.144 402.64 62.176C400.624 65.088 401.632 69.232 404.992 71.472C408.688 74.048 415.968 71.584 417.648 70.128C417.648 70.128 419.328 68.896 421.232 70.016C423.136 71.136 421.68 73.04 421.68 73.04C420.896 74.048 420.224 74.944 419.888 75.504C417.76 78.64 417.088 80.432 418.32 81.104C418.768 81.44 419.552 81.328 420.448 81.216L420.56 81.552Z" fill="#B6C9B3"/>
<path d="M469.616 107.984C464.576 112.688 457.744 113.808 451.808 112.128C448.448 111.232 445.424 109.44 443.072 106.976C441.056 104.848 440.048 102.496 439.6 100.256L425.488 113.36L422.128 109.664L459.312 74.944L462.672 78.64L458.752 82.224C463.568 82 468.272 83.792 471.408 87.152C476.56 92.752 476.224 101.824 469.616 107.984ZM464.576 105.968C470.176 100.704 473.2 92.304 467.712 86.368C465.472 84.016 462 82.56 458.416 82.784L443.072 97.008C442.96 98.912 443.072 101.152 443.632 103.28C444.08 104.96 444.864 106.64 446.096 107.872C447.552 109.44 449.12 110.448 450.912 111.008C454.944 112.352 459.648 110.672 464.576 105.968Z" fill="#B6C9B3"/>
<path d="M491.008 140.576C486.416 143.712 479.808 144.384 474.32 142.144C471.408 141.024 468.832 139.008 466.816 136.208C464.8 133.184 463.792 129.936 463.792 126.688C463.792 121.648 466.256 116.944 471.296 113.472C479.136 108.208 490 109.44 495.712 117.84C500.864 125.568 499.408 134.864 491.008 140.576ZM487.088 136.768C493.92 132.176 498.736 123.552 494.592 117.616C490.224 111.232 483.056 112.016 475.104 117.392C470.4 120.528 466.704 125.68 466.256 130.608C466.144 132.736 466.592 134.864 467.824 136.656C469.168 138.672 470.96 139.904 472.976 140.464C477.008 141.696 481.824 140.352 487.088 136.768Z" fill="#B6C9B3"/>
<path d="M516.768 156.256L512.512 158.384C511.952 156.48 511.392 154.128 510.16 151.776C508.144 147.744 502.88 147.408 493.808 152L490.672 153.568C484.624 156.704 480.928 158.608 480.928 158.608L478.688 154.24C478.688 154.24 485.296 150.768 487.872 149.536C487.984 149.424 488.096 149.424 488.096 149.424L488.544 149.2C488.544 149.2 488.88 149.088 489.44 148.864L508.368 139.344L510.608 143.6L502.992 147.408C509.152 148.416 514.64 151.552 516.656 155.584C516.544 155.92 516.656 156.032 516.768 156.256Z" fill="#B6C9B3"/>
<path d="M504.224 206.992C501.312 205.76 498.848 203.744 498.064 200.944C496.832 196.688 498.848 194.112 504.896 192.32L527.408 185.488L525.28 178.544L525.616 178.432C526.064 180 526.848 181.456 527.632 182.576C531.328 187.84 536.928 187.504 536.928 187.504L537.04 187.728L529.2 190.08L531.664 198.032L531.328 198.144L528.864 190.192L506.464 197.024C501.984 198.368 499.968 200.608 500.752 203.184C501.2 204.64 502.432 205.872 504.336 206.656L504.224 206.992Z" fill="#B6C9B3"/>
<path d="M537.152 223.904L532.56 224.8C532.56 222.784 532.672 220.432 532.112 217.744C531.216 213.264 526.288 211.584 516.32 213.6L512.848 214.272C506.128 215.616 502.096 216.512 502.096 216.512L501.088 211.696C501.088 211.696 508.368 210.128 511.168 209.568C511.28 209.568 511.392 209.568 511.392 209.568L511.84 209.456C511.84 209.456 512.176 209.456 512.736 209.344L533.456 205.2L534.464 209.904L526.176 211.584C531.888 214.272 536.256 218.64 537.152 223.12C537.04 223.456 537.152 223.68 537.152 223.904Z" fill="#B6C9B3"/>
<path d="M510.272 260.752C508.592 259.184 506.912 257.168 506.8 255.488C506.576 253.024 508.144 251.568 511.168 251.344C512.736 251.232 514.752 251.12 516.096 251.232C513.072 250.112 505.792 244.736 505.344 239.248C504.896 233.984 507.92 230.512 511.952 230.176C516.208 229.84 520.8 233.536 526.512 244.736C526.624 244.96 526.736 245.072 526.736 245.296L527.184 246.192C527.184 246.304 527.296 246.416 527.296 246.528C528.416 248.656 530.768 250.112 533.344 250C533.456 250 533.456 250 533.568 250H533.68C533.792 250 533.904 250 534.016 250C534.016 250 534.016 250 534.128 250C534.24 250 534.352 250 534.576 249.888H534.688C534.8 249.888 534.912 249.776 535.136 249.776C535.248 249.776 535.36 249.664 535.472 249.664C536.256 249.328 537.04 248.88 537.6 248.208L537.712 248.096C537.824 247.984 537.936 247.872 538.048 247.76C538.608 247.2 538.944 246.528 539.056 245.856C539.28 244.96 539.392 244.064 539.28 242.944C539.28 242.496 539.168 242.048 539.056 241.6C538.944 241.376 538.944 241.152 538.832 240.928C538.496 240.032 538.048 239.36 537.488 238.688C535.584 236.56 532.784 236 531.216 235.104L534.352 231.52C535.808 233.424 537.936 236.784 539.168 240.368C539.28 240.592 540.4 243.728 539.952 247.312C539.504 251.344 537.488 254.48 534.8 254.928C534.8 254.928 534.8 254.928 534.688 254.928C530.992 255.712 528.752 250.784 528.752 250.784L526.064 245.632C521.136 236.336 519.008 234.208 514.192 234.656C510.72 234.992 508.144 238.352 508.48 242.272C508.816 246.752 515.312 250.784 517.44 251.232C517.44 251.232 519.456 251.792 519.792 253.92C520.128 256.16 517.776 256.16 517.776 256.16C516.544 256.16 515.424 256.272 514.752 256.272C511.056 256.608 509.264 257.168 509.376 258.624C509.376 259.184 509.936 259.744 510.72 260.304L510.272 260.752ZM543.088 237.792L542.976 236.784L554.512 247.76L553.616 252.128L543.088 237.792Z" fill="#B6C9B3"/>
<path d="M516.768 288.528C510.944 288.528 506.688 283.376 506.688 276.768C506.688 270.048 508.368 266.688 509.04 264.112C509.04 264 509.04 264 509.04 264H515.76C515.76 264 504.896 272.288 508.256 282.144C509.376 284.384 511.504 285.28 513.744 285.28C518.224 285.28 520.016 280.128 521.808 274.864C523.6 269.376 525.728 263.776 530.992 263.776C537.712 263.776 540.736 270.496 540.736 275.872C540.736 281.136 540.176 283.04 539.616 286.736V286.848V287.184H539.504H533.344C539.84 281.136 540.288 274.192 540.064 273.632C539.504 269.488 537.376 266.912 534.464 266.912C529.984 266.912 528.304 272.064 526.4 277.328C524.608 282.816 522.592 288.528 516.768 288.528Z" fill="#B6C9B3"/>
<path d="M559.328 357.856H554.624C554.96 355.952 555.52 353.488 555.52 350.912C555.52 346.432 551.04 343.744 540.848 343.744H537.264C530.432 343.744 507.136 343.856 507.136 343.856V338.928C507.136 338.928 509.824 338.928 513.632 338.928C511.952 337.696 510.496 336.24 509.376 334.56C507.584 331.872 506.576 328.736 506.576 325.712C506.576 322.688 507.584 319.888 509.376 317.648C512.064 314.176 516.544 311.936 522.032 311.936C532.896 311.936 540.736 321.344 540.736 330.752C540.736 334.224 539.28 336.912 537.824 338.928C538.608 339.04 540.064 339.152 540.736 339.264C550.816 341.28 559.216 350.128 559.216 357.296C559.328 357.408 559.328 357.632 559.328 357.856ZM514.752 338.928C520.688 338.928 528.528 338.928 533.12 338.928C535.584 336.576 539.392 332.656 539.392 328.064C539.392 321.008 534.352 316.528 524.72 316.528C518.336 316.528 511.616 319.552 509.488 325.264C509.04 326.384 508.816 327.728 508.816 329.072C508.816 330.304 509.04 331.424 509.488 332.544C510.384 335.12 512.4 337.472 514.752 338.928Z" fill="#B6C9B3"/>
<path d="M524.16 382.16C518.56 382.16 512.736 379.024 509.488 374.096C507.696 371.52 506.688 368.384 506.688 365.024C506.688 361.328 507.696 358.08 509.488 355.392C512.288 351.248 517.104 348.672 523.04 348.672C532.56 348.672 540.736 355.952 540.736 366.032C540.736 375.328 534.24 382.16 524.16 382.16ZM523.152 376.896C531.328 376.896 540.176 372.528 540.176 365.248C540.176 357.52 533.792 354.16 524.272 354.16C518.56 354.16 512.624 356.288 509.6 360.208C508.256 361.888 507.472 363.904 507.472 366.144C507.472 368.608 508.256 370.624 509.6 372.192C511.952 375.216 516.768 376.896 523.152 376.896Z" fill="#B6C9B3"/>
<path d="M516.768 411.728C510.944 411.728 506.688 406.576 506.688 399.968C506.688 393.248 508.368 389.888 509.04 387.312C509.04 387.2 509.04 387.2 509.04 387.2H515.76C515.76 387.2 504.896 395.488 508.256 405.344C509.376 407.584 511.504 408.48 513.744 408.48C518.224 408.48 520.016 403.328 521.808 398.064C523.6 392.576 525.728 386.976 530.992 386.976C537.712 386.976 540.736 393.696 540.736 399.072C540.736 404.336 540.176 406.24 539.616 409.936V410.048V410.384H539.504H533.344C539.84 404.336 540.288 397.392 540.064 396.832C539.504 392.688 537.376 390.112 534.464 390.112C529.984 390.112 528.304 395.264 526.4 400.528C524.608 406.016 522.592 411.728 516.768 411.728Z" fill="#B6C9B3"/>
<path d="M519.12 468.736C515.2 466.608 511.728 463.584 509.488 460C507.696 457.2 506.688 454.176 506.688 450.928C506.688 447.232 507.696 443.984 509.488 441.408C512.288 437.488 516.88 435.136 522.368 435.136C531.888 435.136 540.736 444.32 540.736 453.84C540.736 458.208 539.504 461.568 538.048 463.472L533.68 460.224C535.248 458.208 539.28 456.304 539.28 451.152C539.28 444.656 534.24 439.504 525.28 439.504C516.656 439.504 510.272 445.664 510.272 454.512C510.272 460.672 513.296 464.928 519.232 468.288C519.456 468.4 519.568 468.624 519.456 468.736C519.456 468.736 519.344 468.848 519.12 468.736Z" fill="#B6C9B3"/>
<path d="M524.16 505.472C518.56 505.472 512.736 502.336 509.488 497.408C507.696 494.832 506.688 491.696 506.688 488.336C506.688 484.64 507.696 481.392 509.488 478.704C512.288 474.56 517.104 471.984 523.04 471.984C532.56 471.984 540.736 479.264 540.736 489.344C540.736 498.528 534.24 505.472 524.16 505.472ZM523.152 500.096C531.328 500.096 540.176 495.728 540.176 488.448C540.176 480.72 533.792 477.36 524.272 477.36C518.56 477.36 512.624 479.488 509.6 483.408C508.256 485.088 507.472 487.104 507.472 489.344C507.472 491.808 508.256 493.824 509.6 495.392C511.952 498.528 516.768 500.096 523.152 500.096Z" fill="#B6C9B3"/>
<path d="M527.408 539.184H507.136V534.256H528.08C536.256 534.144 538.832 530.336 538.832 526.304C538.832 522.16 537.04 519.472 532.896 516.448H507.248V511.408H540.288V516.448H533.792C538.16 519.808 540.848 523.504 540.848 528.544C540.736 534.368 537.824 539.184 527.408 539.184Z" fill="#B6C9B3"/>
<path d="M540.176 571.664L535.248 569.648L509.6 559.12L507.248 558.112C507.136 558 507.136 558 507.136 557.888V556.88C507.136 556.768 507.136 556.656 507.248 556.656L509.6 555.648L539.168 542.768C539.504 542.656 539.84 542.432 540.176 542.32V547.472L512.176 559.68L535.248 568.976L538.72 570.32L540.176 570.88V571.664Z" fill="#B6C9B3"/>
<path d="M507.136 576.032H540.176V581.072H507.136V576.032ZM549.808 575.136C551.712 575.136 553.28 576.704 553.28 578.608C553.28 580.512 551.712 582.08 549.808 582.08C547.904 582.08 546.336 580.512 546.336 578.608C546.336 576.704 547.904 575.136 549.808 575.136Z" fill="#B6C9B3"/>
<path d="M511.28 606.272C508.928 604.256 507.136 601.568 507.136 598.656C507.136 594.288 509.936 592.384 516.208 592.384H539.728V585.104H540.176C540.176 586.784 540.4 588.352 540.848 589.696C542.864 595.744 548.352 597.088 548.352 597.088V597.312H540.176V605.6H539.84V597.312H516.432C511.728 597.312 509.152 598.768 509.152 601.568C509.152 603.136 510.048 604.704 511.616 605.936L511.28 606.272Z" fill="#B6C9B3"/>
<path d="M521.808 644.576C517.104 642.336 512.4 638.864 509.488 634.384C509.376 634.272 509.264 634.16 509.264 633.936C507.584 631.136 506.576 628 506.576 624.416C506.688 620.496 507.696 617.136 509.6 614.448C512.4 610.416 517.104 608.064 522.592 608.176C531.888 608.288 539.952 616.688 540.624 625.312C540.624 625.312 540.848 627.664 540.512 629.008C540.4 630.128 540.064 631.696 539.28 633.264C539.28 633.376 539.168 633.488 539.168 633.6C539.056 633.712 539.056 633.824 538.944 633.936C538.72 634.384 538.496 634.72 538.16 635.056C537.6 635.728 537.04 636.288 536.368 636.736C534.912 637.744 533.008 638.528 530.544 638.64H530.432C529.872 638.64 527.296 638.528 527.296 634.832L527.632 612.32C526.736 612.208 525.84 612.096 524.944 612.096C516.88 611.984 510.496 618.928 510.272 627.776C510.16 635.392 514.528 640.32 521.808 644.016V644.576ZM528.08 612.432L527.744 631.024C527.744 632.032 528.528 632.928 529.648 633.04C532.224 633.04 534.128 632.48 535.584 631.696C536.928 630.912 537.712 629.904 538.272 628.896C538.272 628.784 538.384 628.784 538.384 628.672C538.496 628.448 538.496 628.336 538.608 628.112C538.944 627.216 539.168 626.096 539.28 624.864C539.392 619.712 536.928 615.456 531.888 613.44H531.776C531.328 613.328 530.88 613.104 530.544 612.992C529.76 612.768 528.976 612.544 528.64 612.544C528.416 612.544 528.304 612.544 528.08 612.432Z" fill="#B6C9B3"/>
<path d="M512.736 667.088C506.912 666.304 503.44 660.592 504.336 654.096C505.232 647.376 507.36 644.352 508.368 641.888C508.368 641.776 508.368 641.776 508.48 641.776L515.088 642.672C515.088 642.672 503.216 649.504 505.232 659.696C506.128 662.16 507.92 663.28 510.272 663.616C514.752 664.176 517.104 659.36 519.68 654.32C522.256 649.056 525.056 643.904 530.32 644.576C537.04 645.472 539.056 652.528 538.384 657.904C537.712 663.168 536.928 664.848 535.808 668.432V668.544L535.696 668.88H535.584L529.424 668.096C536.592 662.944 538.048 656.224 537.936 655.552C537.936 651.408 536.256 648.496 533.344 648.16C528.864 647.6 526.512 652.416 524.048 657.344C521.36 662.496 518.56 667.872 512.736 667.088Z" fill="#B6C9B3"/>
</svg>
