<svg width="964" height="191" viewBox="0 0 964 191" fill="none" xmlns="http://www.w3.org/2000/svg">
<g clip-path="url(#clip0_402_39628)">
<path d="M-584 278C-565.467 203.005 -377.633 -28.2827 -136.613 54.4707C164.662 157.913 474.989 160.499 578.431 132.052C681.873 103.606 676.701 37.6614 623.687 10.5079C570.673 -16.6456 500.849 10.5079 500.849 72.573C500.849 128.975 663.771 212.22 756.869 166.964C811.525 140.395 992.2 -11.4735 1159 72.573" stroke="url(#paint0_linear_402_39628)"/>
<path d="M593.566 59.4692C592.184 53.4818 584.815 55.3241 581.13 58.0875C578.828 59.9298 576.525 62.2326 575.143 64.5354C574.683 60.8509 572.84 57.6269 570.077 55.3241C566.392 52.1001 560.865 55.3241 558.563 59.0086C555.799 63.6143 557.181 69.6017 559.023 74.2073C561.326 79.7342 565.011 84.8004 567.313 90.3272C567.774 90.7878 571.919 88.9455 571.459 88.0244C568.235 79.2736 560.405 71.9045 560.865 62.2326C560.865 60.3903 561.326 58.0875 562.708 56.2452H563.168C563.629 56.2452 564.089 56.7058 564.55 56.7058C565.471 57.1663 566.392 58.0875 566.853 59.0086C570.537 63.1537 571.919 67.7594 571.459 72.3651C571.459 73.2862 575.143 70.9834 575.604 70.5228C576.525 67.7594 577.906 65.4566 579.288 63.1537C580.209 61.772 581.591 59.0086 583.433 58.5481C585.736 57.6269 588.5 59.4692 588.96 61.3114C589.881 63.6143 588.96 65.9171 588.039 68.22C585.736 72.8256 582.512 76.9708 579.288 81.1159C577.906 82.9581 576.064 84.8004 574.682 87.1032C573.301 88.9455 571.919 90.7878 570.998 93.0906C570.998 94.0117 572.84 93.0906 572.84 93.0906C573.301 92.63 575.143 92.1695 575.143 91.2483C575.604 88.0244 578.367 85.7215 580.67 82.9581C582.512 80.6553 584.354 78.3524 586.197 75.589C588.039 72.8256 589.881 70.0622 591.263 67.2988C593.566 64.5354 594.487 62.2326 593.566 59.4692Z" fill="#F0989A"/>
</g>
<defs>
<linearGradient id="paint0_linear_402_39628" x1="1110" y1="288" x2="-19.4312" y2="278" gradientUnits="userSpaceOnUse">
<stop stop-color="#D2D3D6" stop-opacity="0"/>
<stop offset="0.375" stop-color="#D2D3D6"/>
<stop offset="0.666667" stop-color="#D2D3D6"/>
<stop offset="1" stop-color="#D2D3D6" stop-opacity="0"/>
</linearGradient>
<clipPath id="clip0_402_39628">
<rect width="964" height="191" fill="white"/>
</clipPath>
</defs>
</svg>
